<svg width="28" height="23" viewBox="0 0 28 23" fill="none" xmlns="http://www.w3.org/2000/svg">
<path d="M21.25 17.5H18.75C18.3958 17.5 18.0992 17.38 17.86 17.14C17.6208 16.9 17.5008 16.6033 17.5 16.25C17.4992 15.8967 17.6192 15.6 17.86 15.36C18.1008 15.12 18.3975 15 18.75 15H21.25V12.5C21.25 12.1458 21.37 11.8492 21.61 11.61C21.85 11.3708 22.1467 11.2508 22.5 11.25C22.8533 11.2492 23.1504 11.3692 23.3912 11.61C23.6321 11.8508 23.7517 12.1475 23.75 12.5V15H26.25C26.6042 15 26.9012 15.12 27.1412 15.36C27.3812 15.6 27.5008 15.8967 27.5 16.25C27.4992 16.6033 27.3792 16.9004 27.14 17.1412C26.9008 17.3821 26.6042 17.5017 26.25 17.5H23.75V20C23.75 20.3542 23.63 20.6512 23.39 20.8912C23.15 21.1312 22.8533 21.2508 22.5 21.25C22.1467 21.2492 21.85 21.1292 21.61 20.89C21.37 20.6508 21.25 20.3542 21.25 20V17.5ZM2.5 22.5C1.8125 22.5 1.22417 22.2554 0.735 21.7663C0.245833 21.2771 0.000833333 20.6883 0 20V2.5C0 1.8125 0.245 1.22417 0.735 0.735C1.225 0.245833 1.81333 0.000833333 2.5 0H20C20.6875 0 21.2763 0.245 21.7663 0.735C22.2563 1.225 22.5008 1.81333 22.5 2.5V7.5C22.5 7.85417 22.38 8.15125 22.14 8.39125C21.9 8.63125 21.6033 8.75083 21.25 8.75C20.8967 8.74917 20.6 8.62917 20.36 8.39C20.12 8.15083 20 7.85417 20 7.5V6.25H2.5V20H17.5C17.8542 20 18.1513 20.12 18.3913 20.36C18.6313 20.6 18.7508 20.8967 18.75 21.25C18.7492 21.6033 18.6292 21.9004 18.39 22.1412C18.1508 22.3821 17.8542 22.5017 17.5 22.5H2.5ZM2.5 3.75H20V2.5H2.5V3.75Z" fill="#60767D"/>
</svg>
