<svg width="28" height="18" viewBox="0 0 28 18" fill="none" xmlns="http://www.w3.org/2000/svg">
<path d="M18.75 7.5C20.825 7.5 22.4875 5.825 22.4875 3.75C22.4875 1.675 20.825 0 18.75 0C16.675 0 15 1.675 15 3.75C15 5.825 16.675 7.5 18.75 7.5ZM8.75 7.5C10.825 7.5 12.4875 5.825 12.4875 3.75C12.4875 1.675 10.825 0 8.75 0C6.675 0 5 1.675 5 3.75C5 5.825 6.675 7.5 8.75 7.5ZM8.75 10C5.8375 10 0 11.4625 0 14.375V17.5H17.5V14.375C17.5 11.4625 11.6625 10 8.75 10ZM18.75 10C18.3875 10 17.975 10.025 17.5375 10.0625C18.9875 11.1125 20 12.525 20 14.375V17.5H27.5V14.375C27.5 11.4625 21.6625 10 18.75 10Z" fill="#60767D"/>
</svg>
