<svg xmlns="http://www.w3.org/2000/svg" width="30" height="30" fill="none" viewBox="0 0 30 30"><path fill="#00adff" fill-rule="evenodd" d="M20 11.25a5 5 0 1 1-10 0 5 5 0 0 1 10 0m-2.5 0a2.5 2.5 0 1 1-5 0 2.5 2.5 0 0 1 5 0" clip-rule="evenodd"/><path fill="#00adff" fill-rule="evenodd" d="M15 1.25C7.406 1.25 1.25 7.406 1.25 15S7.406 28.75 15 28.75 28.75 22.594 28.75 15 22.594 1.25 15 1.25M3.75 15c0 2.613.891 5.017 2.385 6.927a11.24 11.24 0 0 1 8.946-4.427 11.23 11.23 0 0 1 8.865 4.323A11.25 11.25 0 1 0 3.75 15M15 26.25a11.2 11.2 0 0 1-7.09-2.515A8.74 8.74 0 0 1 15.081 20a8.74 8.74 0 0 1 7.111 3.65A11.2 11.2 0 0 1 15 26.25" clip-rule="evenodd"/></svg>