<svg width="66" height="61" viewBox="0 0 66 61" fill="none" xmlns="http://www.w3.org/2000/svg">
<path d="M16.5437 27.9247H13.9656V20.652H16.565C17.2966 20.652 17.9263 20.7976 18.4542 21.0888C18.9822 21.3776 19.3882 21.7931 19.6723 22.3352C19.9587 22.8774 20.102 23.5261 20.102 24.2813C20.102 25.0388 19.9587 25.6899 19.6723 26.2344C19.3882 26.7789 18.9798 27.1967 18.4471 27.4879C17.9168 27.7791 17.2824 27.9247 16.5437 27.9247ZM15.5032 26.6073H16.4798C16.9343 26.6073 17.3167 26.5268 17.6268 26.3658C17.9393 26.2024 18.1737 25.9503 18.3299 25.6094C18.4886 25.2661 18.5679 24.8234 18.5679 24.2813C18.5679 23.7439 18.4886 23.3047 18.3299 22.9638C18.1737 22.6229 17.9405 22.3719 17.6304 22.2109C17.3202 22.05 16.9379 21.9695 16.4834 21.9695H15.5032V26.6073ZM21.241 27.9247V20.652H26.1416V21.9198H22.7786V23.6527H25.8894V24.9205H22.7786V26.657H26.1558V27.9247H21.241ZM27.364 27.9247V20.652H30.276C30.811 20.652 31.2573 20.7313 31.6147 20.8899C31.9722 21.0485 32.2409 21.2687 32.4209 21.5504C32.6008 21.8298 32.6907 22.1518 32.6907 22.5163C32.6907 22.8004 32.6339 23.0502 32.5203 23.2656C32.4066 23.4787 32.2504 23.6539 32.0515 23.7912C31.855 23.9261 31.6301 24.022 31.3768 24.0788V24.1499C31.6538 24.1617 31.913 24.2398 32.1545 24.3842C32.3984 24.5287 32.596 24.7311 32.7476 24.9915C32.8991 25.2495 32.9748 25.5573 32.9748 25.9148C32.9748 26.3007 32.879 26.6451 32.6872 26.9482C32.4978 27.2488 32.2173 27.4868 31.8456 27.6619C31.4739 27.8371 31.0158 27.9247 30.4713 27.9247H27.364ZM28.9017 26.6676H30.1552C30.5837 26.6676 30.8962 26.5859 31.0927 26.4226C31.2892 26.2569 31.3875 26.0367 31.3875 25.7621C31.3875 25.5609 31.3389 25.3833 31.2419 25.2294C31.1448 25.0755 31.0063 24.9548 30.8264 24.8672C30.6488 24.7796 30.437 24.7358 30.1907 24.7358H28.9017V26.6676ZM28.9017 23.6953H30.0416C30.2523 23.6953 30.4393 23.6586 30.6027 23.5852C30.7684 23.5095 30.8986 23.4029 30.9933 23.2656C31.0904 23.1283 31.1389 22.9638 31.1389 22.772C31.1389 22.5092 31.0454 22.2974 30.8584 22.1364C30.6737 21.9754 30.4109 21.8949 30.07 21.8949H28.9017V23.6953ZM33.6984 21.9198V20.652H39.6714V21.9198H37.4448V27.9247H35.9249V21.9198H33.6984Z" fill="#00ADFF"/>
<path d="M50.061 0.185814C50.9729 -0.0433541 51.9247 -0.0607824 52.8443 0.134853C53.7639 0.330487 54.627 0.734043 55.3681 1.31488C56.1093 1.89572 56.709 2.63858 57.1217 3.48705C57.5344 4.33553 57.7493 5.26732 57.75 6.2117V11.2678H59.8125C61.4535 11.2678 63.0273 11.9228 64.1877 13.0886C65.3481 14.2544 66 15.8356 66 17.4843V54.7835C66 56.4322 65.3481 58.0134 64.1877 59.1792C63.0273 60.345 61.4535 61 59.8125 61H6.1875C4.54647 61 2.97266 60.345 1.81228 59.1792C0.651896 58.0134 4.04628e-07 56.4322 4.04628e-07 54.7835V17.4843C-0.000575275 15.884 0.61315 14.3451 1.71343 13.1879C2.81371 12.0308 4.31579 11.3445 5.907 11.2719L50.061 0.185814ZM22.9432 11.2678H53.625V6.2117C53.6243 5.89729 53.5524 5.58717 53.4147 5.30482C53.277 5.02247 53.0772 4.77529 52.8304 4.58201C52.5836 4.38874 52.2962 4.25442 51.99 4.18925C51.6839 4.12407 51.367 4.12975 51.0634 4.20583L22.9432 11.2678ZM6.1875 15.4122C5.64049 15.4122 5.11589 15.6305 4.72909 16.0191C4.3423 16.4077 4.125 16.9348 4.125 17.4843V54.7835C4.125 55.333 4.3423 55.8601 4.72909 56.2487C5.11589 56.6373 5.64049 56.8557 6.1875 56.8557H59.8125C60.3595 56.8557 60.8841 56.6373 61.2709 56.2487C61.6577 55.8601 61.875 55.333 61.875 54.7835V17.4843C61.875 16.9348 61.6577 16.4077 61.2709 16.0191C60.8841 15.6305 60.3595 15.4122 59.8125 15.4122H6.1875Z" fill="#23B9FF"/>
<path d="M23.422 39.9883C23.1552 39.347 22.7153 38.9061 22.1023 38.6657C21.4892 38.4252 20.7523 38.411 19.8917 38.623C19.3069 38.767 18.838 38.9702 18.485 39.2324C18.1303 39.4893 17.8885 39.7855 17.7595 40.1211C17.636 40.4553 17.629 40.8018 17.7384 41.1605C17.8185 41.4621 17.9615 41.7074 18.1674 41.8962C18.3787 42.0837 18.6334 42.2284 18.9314 42.3303C19.2277 42.4267 19.5569 42.4946 19.9188 42.534C20.2791 42.568 20.6565 42.5802 21.051 42.5707L22.6831 42.5543C23.472 42.5352 24.2169 42.5854 24.9177 42.705C25.6184 42.8245 26.2555 43.0269 26.8289 43.3122C27.4022 43.5975 27.8951 43.9786 28.3074 44.4555C28.7253 44.931 29.043 45.5159 29.2607 46.2102C29.5667 47.2333 29.572 48.1844 29.2766 49.0635C28.9851 49.9358 28.4113 50.6994 27.5552 51.3544C26.703 52.0025 25.5873 52.4965 24.2081 52.8362C22.8399 53.1732 21.5853 53.2603 20.4442 53.0973C19.3087 52.9329 18.3333 52.5159 17.5181 51.8461C16.7068 51.1695 16.1042 50.234 15.7104 49.0397L19.1778 48.1856C19.3871 48.7359 19.6924 49.1632 20.0936 49.4675C20.4987 49.765 20.973 49.9491 21.5165 50.0197C22.0638 50.0836 22.6464 50.0394 23.2643 49.8872C23.8712 49.7377 24.3715 49.521 24.7654 49.237C25.1647 48.9516 25.4413 48.6235 25.5951 48.2525C25.7489 47.8816 25.7645 47.4951 25.6418 47.0929C25.5275 46.7179 25.3183 46.4305 25.0142 46.2308C24.7156 46.0297 24.3238 45.8925 23.8388 45.8192C23.3593 45.7445 22.7883 45.7099 22.1256 45.7153L20.141 45.7134C18.6077 45.723 17.3163 45.4656 16.2667 44.9412C15.217 44.4168 14.5069 43.537 14.1362 42.302C13.8224 41.2925 13.8262 40.3421 14.1476 39.4507C14.4744 38.558 15.0587 37.7802 15.9004 37.1171C16.7421 36.454 17.7808 35.9702 19.0166 35.6658C20.2745 35.356 21.437 35.2975 22.5041 35.4904C23.5768 35.6819 24.4903 36.0908 25.2448 36.7171C25.9993 37.3435 26.5364 38.1519 26.8563 39.1423L23.422 39.9883ZM36.94 49.4458L26.9995 33.9448L30.9138 32.9806L37.2566 43.89L37.3973 43.8553L36.9548 31.4925L40.3063 30.6669L46.9379 41.5315L47.0869 41.4948L46.3473 29.1788L50.2616 28.2146L50.5034 46.1047L47.0112 46.9649L40.4551 36.8443L40.3227 36.8769L40.4322 48.5855L36.94 49.4458Z" fill="#00ADFF"/>
</svg>
