<svg width="40" height="40" viewBox="0 0 40 40" fill="none" xmlns="http://www.w3.org/2000/svg">
<path d="M3.3335 17.7778H36.6668V37.7778H3.3335V17.7778Z" fill="#66757F"/>
<path d="M2.22222 37.7778H37.7778C38.3671 37.7778 38.9324 38.0119 39.3491 38.4287C39.7659 38.8454 40 39.4106 40 40H0C0 39.4106 0.234126 38.8454 0.650874 38.4287C1.06762 38.0119 1.63285 37.7778 2.22222 37.7778Z" fill="#CCD6DD"/>
<path d="M19.9998 25.5556C19.1158 25.5556 18.2679 25.9067 17.6428 26.5319C17.0177 27.157 16.6665 28.0048 16.6665 28.8889V35.5556H23.3332V28.8889C23.3332 28.0048 22.982 27.157 22.3569 26.5319C21.7317 25.9067 20.8839 25.5556 19.9998 25.5556Z" fill="#292F33"/>
<path d="M3.3335 23.3333H7.77794V35.5556H3.3335V23.3333ZM10.0002 23.3333H14.4446V35.5556H10.0002V23.3333ZM32.2224 23.3333H36.6668V35.5556H32.2224V23.3333ZM25.5557 23.3333H30.0002V35.5556H25.5557V23.3333Z" fill="#CCD6DD"/>
<path d="M2.22217 35.5556H37.7777V37.7778H2.22217V35.5556Z" fill="#AAB8C2"/>
<path d="M40 12.2222L20 0L0 12.2222H40Z" fill="#66757F"/>
<path d="M19.9999 2.66667L2.22217 13.3333V17.7778H37.7777V13.3333L19.9999 2.66667Z" fill="#CCD6DD"/>
<path d="M3.3335 21.1111H7.77794V23.3333H3.3335V21.1111ZM10.0002 21.1111H14.4446V23.3333H10.0002V21.1111ZM25.5557 21.1111H30.0002V23.3333H25.5557V21.1111ZM32.2224 21.1111H36.6668V23.3333H32.2224V21.1111Z" fill="#8899A6"/>
<path d="M1.11133 13.3333H38.8891V18.8889H1.11133V13.3333Z" fill="#CCD6DD"/>
<path d="M40 13.3333C40 13.628 39.8829 13.9106 39.6746 14.119C39.4662 14.3274 39.1836 14.4444 38.8889 14.4444H1.11111C0.816426 14.4444 0.533811 14.3274 0.325437 14.119C0.117063 13.9106 0 13.628 0 13.3333V12.2222C0 11.9275 0.117063 11.6449 0.325437 11.4366C0.533811 11.2282 0.816426 11.1111 1.11111 11.1111H38.8889C39.1836 11.1111 39.4662 11.2282 39.6746 11.4366C39.8829 11.6449 40 11.9275 40 12.2222V13.3333ZM40 20C40 20.2947 39.8829 20.5773 39.6746 20.7857C39.4662 20.9941 39.1836 21.1111 38.8889 21.1111H1.11111C0.816426 21.1111 0.533811 20.9941 0.325437 20.7857C0.117063 20.5773 0 20.2947 0 20V18.8889C0 18.5942 0.117063 18.3116 0.325437 18.1032C0.533811 17.8948 0.816426 17.7778 1.11111 17.7778H38.8889C39.1836 17.7778 39.4662 17.8948 39.6746 18.1032C39.8829 18.3116 40 18.5942 40 18.8889V20Z" fill="#AAB8C2"/>
<path d="M14.4443 35.5556H25.5554V37.7778H14.4443V35.5556Z" fill="#E1E8ED"/>
<path d="M12.2222 37.7778H27.7777V40H12.2222V37.7778Z" fill="#F5F8FA"/>
</svg>
